<?xml version="1.0" standalone="no"?>
<!DOCTYPE svg PUBLIC "-//W3C//DTD SVG 20010904//EN"
 "http://www.w3.org/TR/2001/REC-SVG-20010904/DTD/svg10.dtd">
<svg version="1.0" xmlns="http://www.w3.org/2000/svg"
 width="708.000000pt" height="1280.000000pt" viewBox="0 0 708.000000 1280.000000"
 preserveAspectRatio="xMidYMid meet">
<metadata>
Created by potrace 1.15, written by Peter Selinger 2001-2017
</metadata>
<g transform="translate(0.000000,1280.000000) scale(0.100000,-0.100000)"
fill="#e91e63" stroke="none">
<path d="M3425 12795 c-5 -2 -63 -9 -128 -16 -117 -12 -120 -13 -185 -60 -185
-130 -326 -328 -368 -516 -21 -97 -15 -234 15 -317 14 -41 19 -71 15 -97 -12
-76 2 -106 92 -200 69 -72 84 -93 84 -119 0 -18 22 -89 50 -159 27 -69 54
-147 61 -173 37 -152 -41 -328 -174 -392 -79 -39 -161 -56 -315 -65 -164 -10
-204 -26 -253 -100 -49 -74 -60 -129 -69 -341 -25 -545 -99 -987 -231 -1383
-53 -158 -67 -192 -131 -295 -23 -37 -114 -209 -203 -382 -168 -328 -239 -450
-335 -579 -31 -42 -88 -121 -127 -176 -86 -121 -142 -177 -206 -205 -44 -20
-59 -21 -170 -15 -146 8 -191 0 -393 -76 -174 -64 -219 -77 -319 -89 -85 -10
-128 -32 -133 -68 -2 -14 6 -27 24 -39 24 -15 46 -18 159 -15 115 3 140 6 215
33 148 54 225 72 264 65 l37 -7 -44 -48 c-75 -84 -136 -216 -116 -252 22 -42
127 -2 156 59 18 37 71 77 123 92 19 5 73 15 120 21 135 17 173 32 263 102
199 156 376 340 704 735 135 162 279 330 319 374 93 101 160 234 240 472 64
190 71 193 81 35 7 -103 -7 -203 -54 -404 -53 -224 -63 -270 -79 -385 -8 -58
-34 -195 -59 -305 -64 -290 -75 -356 -85 -495 -7 -112 -6 -139 16 -258 44
-238 116 -477 234 -775 63 -160 98 -241 282 -662 39 -88 97 -223 128 -301 32
-77 74 -174 93 -215 61 -128 82 -246 92 -499 13 -332 31 -418 160 -750 48
-124 102 -270 121 -325 l35 -100 -6 -340 c-7 -413 -21 -720 -41 -920 -21 -216
-30 -264 -64 -339 -46 -102 -124 -345 -170 -530 -50 -202 -69 -259 -155 -456
-69 -157 -128 -307 -147 -369 -14 -47 4 -104 41 -130 53 -38 107 -46 232 -31
63 7 166 15 229 19 131 7 161 20 229 98 73 82 101 204 101 443 0 69 7 162 15
208 8 46 19 188 25 315 12 271 29 396 65 492 14 39 38 104 51 145 33 98 51
127 69 109 14 -15 40 -93 50 -149 3 -19 20 -65 36 -101 60 -135 71 -269 44
-534 -20 -196 -19 -258 9 -368 47 -184 131 -354 232 -465 86 -97 227 -120 344
-56 104 56 129 119 123 304 -4 160 -11 191 -93 445 -38 116 -74 238 -80 273
-16 79 -7 251 15 312 24 63 16 150 -20 220 -17 35 -63 90 -123 150 -122 122
-126 134 -162 510 -11 121 -29 238 -42 285 -32 117 -29 261 7 425 37 170 44
433 20 880 -21 408 -16 538 31 750 130 592 316 1499 328 1597 42 338 22 705
-60 1098 -14 66 -34 166 -44 222 -47 250 -112 418 -270 691 -57 99 -74 139
-87 200 -20 101 -19 347 2 495 22 166 113 655 124 675 8 15 12 12 24 -18 8
-19 20 -60 27 -90 36 -161 277 -576 603 -1038 48 -68 108 -163 132 -213 133
-264 294 -485 647 -886 154 -175 163 -183 227 -208 40 -17 99 -30 151 -35 132
-13 207 -49 305 -149 41 -43 55 -51 86 -51 75 0 75 43 2 140 -80 105 -113 154
-113 167 0 28 106 14 252 -33 135 -43 149 -46 252 -45 126 1 171 7 187 27 9
11 8 18 -2 31 -31 37 -209 93 -296 93 -24 0 -52 9 -73 23 -50 34 -160 76 -243
93 -39 8 -143 18 -231 22 l-161 7 -67 100 c-83 122 -235 422 -307 605 -29 74
-84 225 -122 334 -62 179 -74 205 -117 253 -83 96 -202 255 -260 348 -140 224
-286 552 -398 890 -164 496 -180 536 -245 610 -56 63 -115 82 -274 89 -251 12
-403 59 -481 150 -73 85 -72 180 2 407 28 87 77 152 127 168 57 19 127 165
154 321 30 171 4 375 -84 655 -46 146 -49 152 -103 205 -62 63 -124 95 -219
116 -58 12 -218 18 -246 9z"/>
</g>
</svg>
