<svg width="13" height="23" viewBox="0 0 13 23" fill="none" xmlns="http://www.w3.org/2000/svg">
<path fill-rule="evenodd" clip-rule="evenodd" d="M10.4397 5.11364V16.875C10.4397 19.1352 8.47264 20.9659 6.04404 20.9659C3.61543 20.9659 1.64837 19.1352 1.64837 16.875V4.09091C1.64837 2.67955 2.87916 1.53409 4.39566 1.53409C5.91217 1.53409 7.14295 2.67955 7.14295 4.09091V14.8295C7.14295 15.392 6.64844 15.8523 6.04404 15.8523C5.43963 15.8523 4.94512 15.392 4.94512 14.8295V5.11364H3.29675V14.8295C3.29675 16.2409 4.52753 17.3864 6.04404 17.3864C7.56054 17.3864 8.79133 16.2409 8.79133 14.8295V4.09091C8.79133 1.83068 6.82427 0 4.39566 0C1.96706 0 0 1.83068 0 4.09091V16.875C0 19.9841 2.70333 22.5 6.04404 22.5C9.38474 22.5 12.0881 19.9841 12.0881 16.875V5.11364H10.4397Z" fill="#A8C6DF"/>
</svg>
