<svg width="62" height="61" viewBox="0 0 62 61" fill="none" xmlns="http://www.w3.org/2000/svg">
<rect width="62" height="61" fill="#E5E5E5"/>
<g clip-path="url(#clip0)">
<rect width="1920" height="1080" transform="translate(-371 -230)" fill="#F8F8FB"/>
<g clip-path="url(#clip1)">
<rect x="-14.5" y="-13.5" width="484" height="231" rx="13.5" fill="white"/>
</g>
<rect x="-14.5" y="-13.5" width="484" height="231" rx="13.5" stroke="#E2E7FF"/>
<rect x="0.652344" width="60.8261" height="60.5634" rx="12" fill="#5A9CFF" fill-opacity="0.3"/>
<path d="M15.1797 16H24.7248C26.4125 16 28.0311 16.6556 29.2245 17.8225C30.4178 18.9895 31.0883 20.5722 31.0883 22.2225V44.0011C31.0883 42.7634 30.5854 41.5764 29.6904 40.7011C28.7954 39.8259 27.5815 39.3343 26.3157 39.3343H15.1797V16Z" fill="#5A9CFF"/>
<path d="M46.9984 16H37.4533C35.7656 16 34.147 16.6556 32.9536 17.8225C31.7603 18.9895 31.0898 20.5722 31.0898 22.2225V44.0011C31.0898 42.7634 31.5927 41.5764 32.4877 40.7011C33.3827 39.8259 34.5967 39.3343 35.8624 39.3343H46.9984V16Z" fill="#5A9CFF"/>
<path d="M14 49C15.5822 49 17.129 48.5308 18.4446 47.6518C19.7602 46.7727 20.7855 45.5233 21.391 44.0615C21.9965 42.5997 22.155 40.9911 21.8463 39.4393C21.5376 37.8874 20.7757 36.462 19.6569 35.3431C18.538 34.2243 17.1126 33.4624 15.5607 33.1537C14.0089 32.845 12.4003 33.0035 10.9385 33.609C9.47672 34.2145 8.22729 35.2398 7.34824 36.5554C6.46919 37.871 6 39.4178 6 41C6.00233 43.121 6.84593 45.1545 8.34572 46.6543C9.8455 48.1541 11.879 48.9977 14 49ZM10.2344 40.4344C10.3844 40.2844 10.5879 40.2002 10.8 40.2002C11.0121 40.2002 11.2156 40.2844 11.3656 40.4344L13.2 42.2688V37.8C13.2 37.5878 13.2843 37.3843 13.4343 37.2343C13.5843 37.0843 13.7878 37 14 37C14.2122 37 14.4157 37.0843 14.5657 37.2343C14.7157 37.3843 14.8 37.5878 14.8 37.8V42.2688L16.6344 40.4344C16.7853 40.2887 16.9874 40.208 17.1971 40.2099C17.4069 40.2117 17.6075 40.2958 17.7559 40.4441C17.9042 40.5925 17.9883 40.7931 17.9901 41.0029C17.992 41.2126 17.9113 41.4147 17.7656 41.5656L14.5656 44.7656C14.4152 44.9148 14.2119 44.9985 14 44.9985C13.7881 44.9985 13.5848 44.9148 13.4344 44.7656L10.2344 41.5656C10.0844 41.4156 10.0002 41.2121 10.0002 41C10.0002 40.7879 10.0844 40.5844 10.2344 40.4344Z" fill="#FAAA1E"/>
</g>
<defs>
<clipPath id="clip0">
<rect width="1920" height="1080" fill="white" transform="translate(-371 -230)"/>
</clipPath>
<clipPath id="clip1">
</clipPath>
</defs>
</svg>
