<svg width="64" height="79" viewBox="0 0 64 79" fill="none" xmlns="http://www.w3.org/2000/svg">
<path d="M4.38313 53.5096L2.08423 52.2166C4.04791 48.9752 6.90277 46.3671 10.3081 44.7037L11.5221 47.0421C8.57296 48.471 6.09539 50.7155 4.38313 53.5096Z" fill="white"/>
<path d="M6.57981 50.1231C5.85263 50.1264 5.26049 49.5395 5.25722 48.8123C5.25394 48.0852 5.84078 47.493 6.56796 47.4897H6.57981C7.30698 47.4897 7.89647 48.0792 7.89647 48.8064C7.89647 49.5336 7.30698 50.1231 6.57981 50.1231Z" fill="#428DFF"/>
<path d="M21.3081 79.0001C24.8185 79.0322 28.3273 78.8373 31.8125 78.4168C34.437 78.8104 37.0876 79.0053 39.7415 79.0001C50.6342 79.0001 57.9036 76.3523 61.3453 71.1304C64.5396 66.2877 64.317 59.2685 60.7015 50.8313C57.1334 42.2388 55.3768 33.0025 55.5415 23.7001C55.5189 18.6529 53.4912 13.8216 49.9048 10.2701C47.1962 7.56792 43.8132 5.64068 40.1075 4.68874C38.9159 3.18906 36.2668 0.949405 30.7434 0.018522C30.3613 -0.0457834 29.9704 0.0613986 29.6746 0.311534C29.3788 0.561669 29.2082 0.929373 29.2081 1.31676V2.10676C26.0765 1.18757 22.6929 2.04522 20.3772 4.34509C20.0544 4.66778 19.9218 5.13462 20.0267 5.57884C20.1315 6.02306 20.459 6.38127 20.8921 6.52549C21.5269 6.73945 22.1455 6.99862 22.7433 7.30101C17.1696 10.6912 13.67 16.6529 13.4266 23.1721V23.2564V23.288C13.4081 23.4196 13.4081 23.5553 13.4081 23.7001C13.4327 28.0452 14.95 32.2498 17.7057 35.6093C17.3252 35.5883 16.9842 35.5725 16.7288 35.5646C15.0163 33.2265 12.351 31.7732 9.45812 31.6001C8.91968 31.5997 8.43524 31.9272 8.23494 32.427C5.86494 38.3678 8.26654 41.5962 9.46207 42.7444C9.47524 43.824 9.52396 44.9076 9.6069 45.9741C9.88688 50.2222 10.7545 54.4109 12.1849 58.4206C12.2142 58.4932 12.2494 58.5632 12.2903 58.6299C13.9104 61.1158 16.2131 63.0816 18.9223 64.2916C20.7333 65.1481 22.6389 65.7881 24.5998 66.1981L24.6748 66.2126C25.7993 66.4562 26.8342 66.63 27.8348 66.7459C29.8203 67.0001 31.8201 67.125 33.8217 67.1198C34.1412 67.1198 34.4634 67.1167 34.7882 67.1106C35.1437 67.1106 35.4899 67.0948 35.8323 67.0816C36.0244 69.7063 37.1175 72.1841 38.9264 74.0955C36.5892 74.9171 34.1694 75.4813 31.7098 75.7782L31.644 75.7861C28.2152 76.2067 24.7624 76.4007 21.3081 76.3668C8.90381 76.3668 2.87479 70.7683 2.87479 59.2501C2.87557 57.2386 3.39528 55.2613 4.38369 53.5094C4.69435 52.8931 4.50337 52.1421 3.93602 51.749C3.63565 51.5437 3.26155 51.4774 2.90888 51.5668C2.5562 51.6562 2.25894 51.8928 2.09269 52.2165C0.882347 54.3633 0.244827 56.7855 0.241455 59.2501C0.241455 72.1705 7.52525 79.0001 21.3081 79.0001ZM25.7045 8.64137C26.0296 8.47757 26.2723 8.18647 26.3751 7.83725C26.4779 7.48802 26.4315 7.11183 26.2469 6.79804C25.6637 6.00024 24.8828 5.36812 23.981 4.96392C25.9035 4.19337 28.0592 4.25295 29.9362 5.12851C30.3445 5.33251 30.8293 5.31055 31.2174 5.07048C31.6055 4.83041 31.8417 4.40647 31.8415 3.95009V2.92836C35.8415 3.89479 37.5611 5.59856 38.251 6.59659C38.4373 6.86072 38.7135 7.04795 39.0278 7.12326C40.8732 7.56302 42.6434 8.2729 44.2813 9.22992C34.933 8.75987 31.216 13.7145 29.8928 16.4347C27.5227 15.3106 24.822 15.0974 22.3048 15.8356C20.3154 16.3215 18.4646 17.2591 16.896 18.5756C18.4113 14.2346 21.576 10.6654 25.7045 8.64137ZM16.0415 23.6593C17.51 21.0207 20.0107 19.1125 22.9434 18.3926C27.3503 17.2906 29.5149 19.2879 29.5939 19.363C29.9336 19.7033 30.4319 19.8314 30.8936 19.697C31.3553 19.5627 31.7071 19.1873 31.8112 18.7178C31.8941 18.3373 34.0495 9.51564 48.2998 12.4084C51.2334 15.4379 52.8843 19.483 52.9081 23.7001C52.7417 33.3594 54.571 42.9491 58.2814 51.8689C60.5474 57.1579 62.5369 64.5405 59.1478 69.682C56.288 74.0191 49.972 76.2654 40.3879 76.3575C41.0081 76.1126 41.6045 75.8546 42.1654 75.5741C45.6372 73.9439 48.4508 71.1806 50.1431 67.7386C51.2123 65.6004 50.5592 64.343 50.0747 63.7886C49.4874 63.1119 47.9996 62.1441 44.5986 63.2725C43.0996 63.6919 41.5662 63.9774 40.0166 64.1257C47.2425 58.859 48.6408 52.992 48.9028 50.859C53.2294 48.3652 53.4006 44.6983 52.8462 43.0393C52.7365 42.708 52.4997 42.4338 52.1879 42.2769C49.0086 40.6596 45.1879 40.9798 42.3221 43.1038C35.7757 38.5468 27.6255 36.7153 21.6768 35.9806C18.1341 32.8773 16.084 28.4096 16.0415 23.7001V23.6593ZM31.7309 64.4246C33.7216 62.7665 35.4588 60.8258 36.8869 58.6642C37.148 58.2728 37.1804 57.7719 36.972 57.3501C36.7636 56.9283 36.346 56.6498 35.8766 56.6194C35.4071 56.5889 34.9571 56.8113 34.696 57.2027C32.9007 59.9748 30.5185 62.3189 27.7177 64.0691C27.1374 63.9927 26.5327 63.8922 25.9033 63.7676C25.473 62.3004 25.2557 60.779 25.2581 59.2501C25.2581 58.5229 24.6686 57.9334 23.9415 57.9334C23.2143 57.9334 22.6248 58.5229 22.6248 59.2501C22.6247 60.5228 22.7526 61.7923 23.0066 63.0395C22.1758 62.784 21.3611 62.4789 20.5668 62.1257C19.36 58.2064 18.7228 54.134 18.6748 50.0334C18.6748 49.3062 18.0853 48.7168 17.3581 48.7168C16.6309 48.7168 16.0415 49.3062 16.0415 50.0334C16.0695 53.473 16.5013 56.8974 17.3278 60.2363C16.2543 59.4368 15.328 58.4566 14.5905 57.3396C13.3013 53.6021 12.5085 49.7114 12.2323 45.7674C12.1389 44.5706 12.0915 43.3461 12.0915 42.1334C12.0915 41.6933 11.8717 41.2822 11.5055 41.038C11.4766 41.0182 8.81559 39.1736 10.3403 34.3532C12.2433 34.7864 13.899 35.9521 14.9486 37.5975C15.1924 37.9629 15.6023 38.1826 16.0415 38.1834C17.6702 38.2149 19.2963 38.3305 20.9131 38.5297C26.8289 39.2223 35.2161 41.0472 41.5848 45.8201C42.1071 46.2052 42.8315 46.1556 43.2965 45.7029C45.2211 43.9318 47.988 43.4149 50.4223 44.3718C50.4815 45.2934 50.1958 47.2895 47.0529 48.8603C46.6082 49.0825 46.3265 49.5363 46.3248 50.0334C46.3248 50.1072 46.2102 57.4449 36.3339 63.416C36.2882 63.4445 36.2442 63.4757 36.2023 63.5095C35.6756 63.8216 35.0989 64.1415 34.4392 64.4825C33.511 64.4917 32.6157 64.4641 31.7309 64.4246ZM38.4748 66.9263C40.8246 66.7821 43.153 66.3946 45.4229 65.7702C47.2122 65.1764 47.9851 65.4226 48.0681 65.4977C48.0904 65.8755 47.9892 66.2503 47.7797 66.5655C46.4502 69.2713 44.2951 71.4845 41.6256 72.8855C39.7413 71.4648 38.5867 69.2795 38.4748 66.9223V66.9263Z" fill="#428DFF"/>
<path d="M23.6367 29.9887C24.1674 29.9834 24.6925 29.8794 25.1851 29.6819C26.1824 29.3316 26.9911 28.5856 27.4205 27.6197C27.8499 26.6537 27.8619 25.5535 27.4537 24.5785C27.1966 23.8982 26.4368 23.5551 25.7565 23.8122C25.0762 24.0692 24.7331 24.8291 24.9902 25.5094C25.1685 25.9502 25.0951 26.453 24.7983 26.8246C24.5016 27.1962 24.0275 27.3789 23.5581 27.3025C23.0887 27.2261 22.697 26.9026 22.5333 26.456C22.269 25.7783 21.5053 25.4432 20.8276 25.7075C20.1498 25.9718 19.8147 26.7355 20.079 27.4133C20.6311 28.9151 22.0375 29.9333 23.6367 29.9887Z" fill="#428DFF"/>
<path d="M40.8376 23.3713C41.3686 23.366 41.894 23.2625 42.3873 23.0658C43.7798 22.6066 44.7678 21.3658 44.9035 19.9058C44.9641 19.2468 44.8796 18.5826 44.6559 17.9598C44.3949 17.281 43.6329 16.9423 42.9541 17.2033C42.2753 17.4644 41.9366 18.2263 42.1977 18.9051C42.2727 19.1469 42.3018 19.4006 42.2833 19.653C42.2504 19.9769 42.1279 20.3429 41.4419 20.6063C41.1167 20.7695 40.7353 20.7777 40.4034 20.6285C40.0715 20.4794 39.8243 20.1889 39.7303 19.8373C39.4656 19.16 38.7019 18.8254 38.0245 19.0901C37.3472 19.3548 37.0126 20.1185 37.2773 20.7959C37.8297 22.2986 39.2374 23.3169 40.8376 23.3713Z" fill="#428DFF"/>
<path d="M32.5572 28.1638C32.7188 28.1634 32.879 28.1335 33.0299 28.0756L35.4881 27.1302C35.9346 26.9665 36.2582 26.5748 36.3346 26.1054C36.4109 25.636 36.2283 25.1619 35.8567 24.8651C35.4851 24.5684 34.9823 24.495 34.5414 24.6733L32.0845 25.6187C31.493 25.8468 31.1481 26.4642 31.2638 27.0875C31.3796 27.7109 31.9232 28.1632 32.5572 28.1638Z" fill="#428DFF"/>
<path d="M33.5697 34.347C34.6153 34.3372 35.65 34.1341 36.6217 33.7479C39.1163 32.9712 40.9702 30.869 41.4289 28.2969C41.4971 27.5828 40.9771 26.947 40.2636 26.8723C39.5486 26.8009 38.9066 27.3115 38.8153 28.0243C38.4412 29.6015 37.241 30.8517 35.6803 31.2897C34.2288 32.0063 32.5035 31.8834 31.1681 30.9684C30.626 30.5004 29.8093 30.5515 29.3298 31.0833C28.8502 31.6152 28.8837 32.4328 29.4051 32.9237C30.5835 33.8716 32.0576 34.3753 33.5697 34.347Z" fill="#428DFF"/>
</svg>
